<svg xmlns="http://www.w3.org/2000/svg" width="512" height="512" preserveAspectRatio="xMidYMid"><g transform="translate(0 301)"><path fill="#abc2ab" d="M256-301a256 256 0 00-149.27 48.41l58.15 58.15A175.19 175.19 0 01256-220.2c96.75 0 175.19 78.44 175.19 175.19a175.1 175.1 0 01-25.8 91.07l58.26 58.26A256 256 0 00512-45c0-141.38-114.62-256-256-256z"/><path fill="#478061" d="M405.27 162.59l-58.15-58.15A175.19 175.19 0 01256 130.2C159.25 130.19 80.81 51.75 80.81-45c.08-32.15 9-63.66 25.8-91.07l-58.26-58.26A256 256 0 000-45C0 96.38 114.62 211 256 211a256 256 0 00149.27-48.41z"/><circle cx="255.96" cy="-45" r="81.5" fill="#abc2ab"/></g></svg>