<svg xmlns="http://www.w3.org/2000/svg" width="620" height="101.83" preserveAspectRatio="xMidYMid"><path d="M73.46 98.84c-2.79 2-5.32 2.99-7.61 2.99h-9.86c-1.4 0-2.49-.25-3.28-.75a5.4 5.4 0 01-1.94-2.24L.3 5.08c-.2-.2-.3-.45-.3-.75v-.9c0-1 .35-1.79 1.05-2.38C1.85.35 3.09 0 4.78 0h61.36c3.29 0 5.43 1 6.43 2.99l31.05 59.87 87.05-59.87a15.8 15.8 0 019.1-2.99h9.71c1.3 0 1.94.55 1.94 1.64 0 .9-.8 2-2.38 3.29zM208.9 101.83c-5.19 0-9.76-.8-13.75-2.39a28.89 28.89 0 01-10-6.87 29.18 29.18 0 01-6.12-10.15 38.6 38.6 0 01-2.1-12.84c0-5.87 1-11.65 3-17.32 1.99-5.68 4.72-11.1 8.2-16.28a85.22 85.22 0 0112.55-14.33A88.38 88.38 0 01216.5 10.3a85.5 85.5 0 0118.21-7.46A68.37 68.37 0 01254.28 0h73.16c5.28 0 9.9.8 13.89 2.39A27.67 27.67 0 01357.6 19.1a37.3 37.3 0 012.1 12.7c0 5.87-1.05 11.69-3.14 17.46-2 5.68-4.78 11.1-8.36 16.28a86.55 86.55 0 01-12.7 14.48 91.72 91.72 0 01-15.97 11.5 91.5 91.5 0 01-18.22 7.61 70.83 70.83 0 01-19.26 2.69zm89.88-61.07c3.28-6.97 4.92-12.2 4.92-15.68 0-2.88-1.04-4.87-3.13-5.97-2-1.1-4.98-1.64-8.96-1.64h-20.3c-2.9 0-5.58.4-8.07 1.2-2.39.7-4.63 1.93-6.72 3.73a34.78 34.78 0 00-6.12 7.16 87.95 87.95 0 00-5.82 11.2l-7.17 16.28c-3.78 8.46-5.67 14.83-5.67 19.1 0 2.9.84 4.99 2.53 6.28 1.7 1.2 4.13 1.8 7.32 1.8h20.46c3.08 0 5.92-.46 8.5-1.35a25 25 0 007.47-4.63 37.62 37.62 0 006.87-8.36c2.19-3.49 4.43-7.77 6.72-12.84zM349.2 101.83c-1.8 0-2.69-.6-2.69-1.8 0-.59.15-1.34.45-2.23l41.96-93.92C390.1 1.3 392 0 394.59 0h51.36c1.9 0 2.84.65 2.84 1.94 0 .6-.2 1.25-.6 1.94L406.4 97.8c-1.2 2.69-3.1 4.03-5.68 4.03zM422.61 101.83c-1.8 0-2.69-.6-2.69-1.8 0-.59.15-1.34.45-2.23l41.96-93.92C463.53 1.3 465.4 0 468 0h120.05c5.17 0 9.75.8 13.73 2.39a27.28 27.28 0 0110 6.72 27.68 27.68 0 016.13 10 37.3 37.3 0 012.09 12.7c0 6.07-1.05 12.04-3.14 17.91a68.41 68.41 0 01-8.66 16.42 78.94 78.94 0 01-12.84 14.34 86.04 86.04 0 01-15.97 11.35 87.96 87.96 0 01-17.92 7.31 68.2 68.2 0 01-18.81 2.69zm129.9-61.07c3.19-7.17 4.78-12.4 4.78-15.68 0-2.88-1-4.87-2.99-5.97-1.99-1.1-4.87-1.64-8.66-1.64h-30.3L485.76 84.2h30.16c2.99 0 5.77-.45 8.36-1.34 2.59-1 5.03-2.54 7.32-4.63a42.84 42.84 0 006.87-8.36 93.75 93.75 0 006.86-12.84z"/></svg>