<?xml version="1.0" encoding="UTF-8" standalone="no"?>
<!-- Created with Inkscape (http://www.inkscape.org/) -->

<svg
   xmlns:dc="http://purl.org/dc/elements/1.1/"
   xmlns:cc="http://creativecommons.org/ns#"
   xmlns:rdf="http://www.w3.org/1999/02/22-rdf-syntax-ns#"
   xmlns:svg="http://www.w3.org/2000/svg"
   xmlns="http://www.w3.org/2000/svg"
   xmlns:xlink="http://www.w3.org/1999/xlink"
   xmlns:sodipodi="http://sodipodi.sourceforge.net/DTD/sodipodi-0.dtd"
   xmlns:inkscape="http://www.inkscape.org/namespaces/inkscape"
   width="94"
   height="32"
   viewBox="0 0 94 32"
   id="svg2"
   version="1.1"
   inkscape:version="0.91 r13725"
   sodipodi:docname="flattr-black.svg">
  <defs
     id="defs4">
    <linearGradient
       inkscape:collect="always"
       id="linearGradient4511">
      <stop
         style="stop-color:#fcc022;stop-opacity:1"
         offset="0"
         id="stop4513" />
      <stop
         style="stop-color:#db6b27;stop-opacity:1"
         offset="1"
         id="stop4515" />
    </linearGradient>
    <linearGradient
       inkscape:collect="always"
       id="linearGradient4503">
      <stop
         style="stop-color:#b1b43e;stop-opacity:1"
         offset="0"
         id="stop4505" />
      <stop
         style="stop-color:#7fa92c;stop-opacity:1"
         offset="1"
         id="stop4507" />
    </linearGradient>
    <linearGradient
       inkscape:collect="always"
       xlink:href="#linearGradient4503"
       id="linearGradient4509"
       x1="16"
       y1="1026.3622"
       x2="16"
       y2="1048.3622"
       gradientUnits="userSpaceOnUse" />
    <linearGradient
       inkscape:collect="always"
       xlink:href="#linearGradient4511"
       id="linearGradient4517"
       x1="12"
       y1="1024.3622"
       x2="12"
       y2="1046.3622"
       gradientUnits="userSpaceOnUse" />
  </defs>
  <sodipodi:namedview
     id="base"
     pagecolor="#303030"
     bordercolor="#666666"
     borderopacity="1.0"
     inkscape:pageopacity="0"
     inkscape:pageshadow="2"
     inkscape:zoom="16"
     inkscape:cx="47"
     inkscape:cy="14.125"
     inkscape:document-units="px"
     inkscape:current-layer="layer1"
     showgrid="true"
     units="px"
     inkscape:window-width="1920"
     inkscape:window-height="1017"
     inkscape:window-x="0"
     inkscape:window-y="0"
     inkscape:window-maximized="1"
     inkscape:snap-smooth-nodes="true"
     inkscape:object-nodes="true"
     inkscape:object-paths="true"
     inkscape:snap-intersection-paths="true">
    <inkscape:grid
       type="xygrid"
       id="grid4155"
       units="px"
       spacingx="1"
       spacingy="1" />
  </sodipodi:namedview>
  <metadata
     id="metadata7">
    <rdf:RDF>
      <cc:Work
         rdf:about="">
        <dc:format>image/svg+xml</dc:format>
        <dc:type
           rdf:resource="http://purl.org/dc/dcmitype/StillImage" />
        <dc:title></dc:title>
      </cc:Work>
    </rdf:RDF>
  </metadata>
  <g
     inkscape:label="Layer 1"
     inkscape:groupmode="layer"
     id="layer1"
     transform="translate(0,-1020.3622)">
    <path
       style="fill:url(#linearGradient4517);fill-opacity:1;fill-rule:evenodd;stroke:none;stroke-width:1px;stroke-linecap:butt;stroke-linejoin:miter;stroke-opacity:1"
       d="m 4,1046.3622 0,-14 c 0,-5 3,-8 8,-8 l 14,0 -10,10 0,-5 -4,0 c -2,0 -3,1 -3,3 l 0,9"
       id="path4467"
       inkscape:connector-curvature="0"
       sodipodi:nodetypes="ccccccccc" />
    <path
       style="fill:url(#linearGradient4509);fill-opacity:1;fill-rule:evenodd;stroke:none;stroke-width:1px;stroke-linecap:butt;stroke-linejoin:miter;stroke-opacity:1"
       d="m 28,1026.3622 0,14 c 0,5 -3,8 -8,8 l -14,0 10,-10 0,5 4,0 c 2,0 3,-1 3,-3 l 0,-9"
       id="path4467-4"
       inkscape:connector-curvature="0"
       sodipodi:nodetypes="ccccccccc" />
    <g
       id="g4150"
       transform="matrix(0.80525452,0,0,0.80525452,8.4266008,201.10772)">
      <path
         sodipodi:nodetypes="cccccccccccccccccccccccccc"
         inkscape:connector-curvature="0"
         id="path4521"
         d="m 57.836915,1032.2878 c -0.827897,0 -0.827897,0 -0.827897,0.8279 l 0,1.6558 c 0,0.8279 0,0.8279 0.827897,0.8279 l 5.795281,0 c 0.827896,0 1.655793,0 1.655793,0.828 l 0,0.8278 c 0,0.8279 0,0.8279 -0.827897,0.8279 l -4.139485,0 c -2.483692,0 -4.139485,1.6558 -4.139485,3.3117 l 0,2.4837 c 0,1.6556 1.655793,3.3115 4.139485,3.3115 l 8.278972,0 c 0.827897,0 0.827897,0 0.827897,-0.8278 l 0,-9.9348 c 0,-1.6559 -1.655795,-4.1396 -4.139487,-4.1396 z m 4.139486,9.107 2.483691,0 c 0.827897,0 0.827897,0 0.827897,0.8278 l 0,0.8279 c 0,0.828 0,0.828 -0.827897,0.828 l -2.483691,0 c -0.827897,0 -1.655794,0 -1.655794,-0.828 l 0,-0.8279 c 0,-0.8278 0.827897,-0.8278 1.655794,-0.8278 z"
         style="fill:#ffffff;fill-opacity:1;fill-rule:evenodd;stroke:none;stroke-width:1px;stroke-linecap:butt;stroke-linejoin:miter;stroke-opacity:1" />
      <path
         sodipodi:nodetypes="ccccccccccccccccccccc"
         inkscape:connector-curvature="0"
         id="path4493"
         d="m 33,1046.3622 c 0,0.8278 0,0.8278 0.827897,0.8278 l 2.483692,0 c 0.827897,0 0.827897,0 0.827897,-0.8278 l 0,-5.7954 c 0,-0.8279 0,-0.8279 0.827897,-0.8279 l 8.278972,0 c 0.827897,0 0.827897,0 0.827897,-0.8278 l 0,-1.6559 c 0,-0.8278 0,-0.8278 -0.827897,-0.8278 l -8.278972,0 c -0.827897,0 -0.827897,0 -0.827897,-0.828 l 0,-1.6557 c 0,-1.6559 1.655795,-3.3117 3.311588,-3.3117 l 5.795281,0 c 0.827897,0 0.827897,0 0.827897,-0.8278 l 0,-1.6559 c 0,-0.8278 0,-0.8278 -0.827897,-0.8278 l -6.623178,0 C 36.311589,1027.3205 33,1030.632 33,1033.1157 Z"
         style="fill:#ffffff;fill-opacity:1;fill-rule:evenodd;stroke:none;stroke-width:1px;stroke-linecap:butt;stroke-linejoin:miter;stroke-opacity:1" />
      <path
         sodipodi:nodetypes="ccccccccc"
         inkscape:connector-curvature="0"
         id="path4519"
         d="m 49.557943,1046.3622 c 0,0.8278 0,0.8278 0.827898,0.8278 l 2.483691,0 c 0.827898,0 0.827898,0 0.827898,-0.8278 l 0,-18.2139 c 0,-0.8278 0,-0.8278 -0.827898,-0.8278 l -2.483691,0 c -0.827898,0 -0.827898,0 -0.827898,0.8278 z"
         style="fill:#ffffff;fill-opacity:1;fill-rule:evenodd;stroke:none;stroke-width:1px;stroke-linecap:butt;stroke-linejoin:miter;stroke-opacity:1" />
      <path
         sodipodi:nodetypes="ccccccccccccccccccccc"
         inkscape:connector-curvature="0"
         id="path4526"
         d="m 78.534345,1047.19 -2.483692,0 c -2.483691,0 -4.139485,-1.6559 -4.139485,-3.3115 l 0,-15.7302 c 0,-0.8278 0,-0.8278 0.827896,-0.8278 l 2.483692,0 c 0.827897,0 0.827897,0 0.827897,0.8278 l 0,3.3117 c 0,0.8278 0,0.8278 0.827897,0.8278 l 1.655795,0 c 0.827897,0 0.827897,0 0.827897,0.8279 l 0,1.6558 c 0,0.8279 0,0.8279 -0.827897,0.8279 l -1.655795,0 c -0.827897,0 -0.827897,0 -0.827897,0.828 l 0,6.6231 c 0,0.828 0.827897,0.828 1.655794,0.828 l 0.827898,0 c 0.827897,0 0.827897,0 0.827897,0.8278 l 0,1.6559 c 0,0.8278 0,0.8278 -0.827897,0.8278 z"
         style="fill:#ffffff;fill-opacity:1;fill-rule:evenodd;stroke:none;stroke-width:1px;stroke-linecap:butt;stroke-linejoin:miter;stroke-opacity:1" />
      <path
         sodipodi:nodetypes="ccccccccccccccccccccc"
         inkscape:connector-curvature="0"
         id="path4526-9"
         d="m 88.469111,1047.19 -2.483692,0 c -2.483692,0 -4.139486,-1.6559 -4.139486,-3.3115 l 0,-15.7302 c 0,-0.8278 0,-0.8278 0.827897,-0.8278 l 2.483692,0 c 0.827897,0 0.827897,0 0.827897,0.8278 l 0,3.3117 c 0,0.8278 0,0.8278 0.827897,0.8278 l 1.655795,0 c 0.827897,0 0.827897,0 0.827897,0.8279 l 0,1.6558 c 0,0.8279 0,0.8279 -0.827897,0.8279 l -1.655795,0 c -0.827897,0 -0.827897,0 -0.827897,0.828 l 0,6.6231 c 0,0.828 0.827897,0.828 1.655794,0.828 l 0.827898,0 c 0.827897,0 0.827897,0 0.827897,0.8278 l 0,1.6559 c 0,0.8278 0,0.8278 -0.827897,0.8278 z"
         style="fill:#ffffff;fill-opacity:1;fill-rule:evenodd;stroke:none;stroke-width:1px;stroke-linecap:butt;stroke-linejoin:miter;stroke-opacity:1" />
      <path
         sodipodi:nodetypes="cccccccccccc"
         inkscape:connector-curvature="0"
         id="path4543"
         d="m 92.608595,1047.19 c -0.827893,0 -0.827893,0 -0.827893,-0.8278 l 0,-9.9348 c 0,-1.6559 1.655794,-4.1396 4.139484,-4.1396 l 4.139484,0 c 0.8279,0 0.8279,0 0.8279,0.8279 l 0,1.6558 c 0,0.8279 0,0.8279 -0.8279,0.8279 l -2.483694,0 c -0.82789,0 -1.65579,0 -1.65579,0.828 l 0,9.9348 c 0,0.8278 0,0.8278 -0.8279,0.8278"
         style="fill:#ffffff;fill-opacity:1;fill-rule:evenodd;stroke:none;stroke-width:1px;stroke-linecap:butt;stroke-linejoin:miter;stroke-opacity:1" />
    </g>
    <path
       style="fill:#000000"
       d="m 35.129965,23.812938 c -0.0342,-0.08913 -0.0465,-2.803197 -0.02733,-6.03125 l 0.03486,-5.869188 0.304491,-0.625 c 0.447214,-0.917954 1.768665,-2.1830983 2.817462,-2.6974097 L 39.131406,8.1625 l 3.565547,0 3.565547,0 0.03733,0.9360279 c 0.02053,0.5148153 0.0054,1.0632531 -0.03363,1.2187501 L 46.195237,10.6 l -2.716369,7e-4 c -1.494002,3.87e-4 -2.916919,0.05641 -3.162037,0.124502 -0.580648,0.1613 -1.435818,0.899963 -1.746142,1.508249 C 38.372439,12.622052 38.325,12.969427 38.325,14.03252 l 0,1.31748 3.85,0 c 2.827778,0 3.889827,0.03983 4,0.15 0.201565,0.201565 0.201565,2.123435 0,2.325 -0.110173,0.110173 -1.172222,0.15 -4,0.15 l -3.85,0 0,2.85 c 0,2.05 -0.0421,2.892105 -0.15,3 -0.218576,0.218576 -2.960699,0.207714 -3.045035,-0.01206 z"
       id="path3436"
       inkscape:connector-curvature="0"
       transform="translate(0,1020.3622)" />
    <path
       style="fill:#000000"
       d="M 48.537088,23.895421 C 48.489189,23.847523 48.45,20.273958 48.45,15.954167 l 0,-7.854167 1.563432,0 1.563432,0 -0.03218,7.90625 -0.03218,7.90625 -1.444162,0.035 c -0.79429,0.01925 -1.483352,-0.0042 -1.53125,-0.05208 z"
       id="path3438"
       inkscape:connector-curvature="0"
       transform="translate(0,1020.3622)" />
    <path
       style="fill:#000000"
       d="m 56.2,23.852832 c -0.711699,-0.151968 -1.08268,-0.340249 -1.611162,-0.817701 -0.744415,-0.672534 -0.920212,-1.259134 -0.869032,-2.899793 0.03957,-1.26867 0.0704,-1.413425 0.421858,-1.981336 0.28976,-0.468209 0.552792,-0.701545 1.11553,-0.989587 0.734014,-0.375711 0.74418,-0.377047 3.1821,-0.4181 1.691398,-0.02848 2.474439,-0.08631 2.538805,-0.1875 0.161049,-0.253177 0.105351,-1.399465 -0.08035,-1.653674 -0.16597,-0.227196 -0.376823,-0.245019 -3.3125,-0.280001 L 54.45,14.587779 l 0,-1.243889 0,-1.24389 3.516748,0 c 2.333929,0 3.681772,0.04944 4.007397,0.147002 0.696642,0.208719 1.528155,0.992428 1.937586,1.826193 l 0.350769,0.714305 0.03726,4.417457 c 0.02731,3.238336 -0.0018,4.464513 -0.109056,4.59375 -0.120404,0.145078 -0.802044,0.173748 -3.849755,0.161918 C 58.30405,23.952719 56.440625,23.904212 56.2,23.852832 Z m 4.850106,-3.437361 C 61.099593,19.267922 61.03763,19.225 59.331534,19.225 c -1.367563,0 -2.10355,0.130568 -2.277081,0.403966 -0.183455,0.289033 -0.115679,1.251445 0.105329,1.495655 0.188991,0.208833 0.390307,0.228391 2.03125,0.197343 l 1.821468,-0.03446 0.03761,-0.872029 z"
       id="path3440"
       inkscape:connector-curvature="0"
       transform="translate(0,1020.3622)" />
    <path
       style="fill:#000000"
       d="M 68.69243,23.8044 C 67.907933,23.592849 67.358929,23.248995 66.900753,22.68223 L 66.5125,22.20196 66.47823,15.15098 66.443959,8.1 l 1.565521,0 1.56552,0 0,1.8676229 c 0,1.3568301 0.04273,1.8952811 0.15625,1.9687501 0.08594,0.05562 0.690625,0.129252 1.34375,0.163627 l 1.1875,0.0625 0.03733,0.936028 C 72.361207,14.637693 72.392956,14.6 71.035119,14.6 c -0.735648,0 -1.215002,0.05488 -1.310119,0.15 -0.108263,0.108263 -0.15,0.977778 -0.15,3.125 0,3.602744 -0.05422,3.475 1.475,3.475 0.591667,0 1.033974,0.05897 1.125,0.15 0.201565,0.201565 0.201565,2.123435 0,2.325 -0.199628,0.199629 -2.721203,0.184713 -3.48257,-0.0206 z"
       id="path3442"
       inkscape:connector-curvature="0"
       transform="translate(0,1020.3622)" />
    <path
       style="fill:#000000"
       d="M 76.69243,23.8044 C 75.907933,23.592849 75.358929,23.248995 74.900753,22.68223 L 74.5125,22.20196 74.47823,15.15098 74.44396,8.1 l 1.56552,0 1.56552,0 0,1.8676229 c 0,1.3568301 0.04273,1.8952811 0.15625,1.9687501 0.08594,0.05562 0.690625,0.129252 1.34375,0.163627 l 1.1875,0.0625 0.03733,0.936028 C 80.361207,14.637693 80.392956,14.6 79.035119,14.6 c -0.735648,0 -1.215002,0.05488 -1.310119,0.15 -0.108263,0.108263 -0.15,0.977778 -0.15,3.125 0,3.602744 -0.05422,3.475 1.475,3.475 0.591667,0 1.033974,0.05897 1.125,0.15 0.201565,0.201565 0.201565,2.123435 0,2.325 -0.199628,0.199629 -2.721203,0.184713 -3.48257,-0.0206 z"
       id="path3444"
       inkscape:connector-curvature="0"
       transform="translate(0,1020.3622)" />
    <path
       style="fill:#000000"
       d="m 82.537088,23.895421 c -0.0479,-0.0479 -0.08585,-2.1449 -0.08434,-4.660004 0.0025,-4.175852 0.02279,-4.617041 0.233556,-5.081089 0.338935,-0.746226 0.939404,-1.369943 1.66881,-1.733422 C 84.975992,12.111508 85.081135,12.1 87.287043,12.1 l 2.287957,0 0,1.240778 0,1.240778 -1.806606,0.04047 c -1.268659,0.02842 -1.854887,0.08882 -1.96875,0.202824 C 85.6753,14.949357 85.62293,16.027559 85.575,19.449853 l -0.0625,4.462647 -1.444162,0.035 c -0.79429,0.01925 -1.483352,-0.0042 -1.53125,-0.05208 z"
       id="path3446"
       inkscape:connector-curvature="0"
       transform="translate(0,1020.3622)" />
    <path
       style="fill:#000000"
       d="m 35.064299,20.64375 c 4.4e-5,-0.790625 0.009,-1.105444 0.0199,-0.699599 0.0109,0.405846 0.01087,1.052721 -8e-5,1.4375 -0.01095,0.38478 -0.01987,0.05272 -0.01982,-0.737901 z"
       id="path3448"
       inkscape:connector-curvature="0"
       transform="translate(0,1020.3622)" />
    <path
       style="fill:#000000"
       d="m 35.35,23.87156 c -0.150669,-0.0439 -0.157807,-0.06999 -0.199851,-0.730417 -0.02398,-0.376692 -0.02763,-3.061455 -0.0081,-5.966143 l 0.03549,-5.28125 0.272425,-0.53125 C 36.021145,10.248608 37.19816,9.1599939 38.583126,8.4646356 L 39.160002,8.175 l 3.526666,0 3.526666,0 0.04527,0.6037774 c 0.04692,0.6257885 0.01246,1.5836306 -0.06126,1.7029136 -0.02875,0.04653 -0.5642,0.06885 -1.679154,0.07001 -0.900315,9.35e-4 -2.20975,0.02737 -2.909855,0.05873 -1.197305,0.05365 -1.293476,0.06709 -1.618966,0.226339 -0.434665,0.212662 -1.188293,0.922459 -1.407975,1.326086 -0.218755,0.401926 -0.291133,0.939922 -0.292652,2.175327 l -0.0012,1.006937 3.734375,0.03909 c 2.053906,0.0215 3.826057,0.05677 3.938112,0.07837 0.270938,0.05224 0.296263,0.162369 0.296263,1.288375 0,0.799457 -0.01459,0.934296 -0.111561,1.03125 -0.104238,0.104217 -0.365775,0.112818 -3.984375,0.131034 l -3.872814,0.01949 -0.0053,2.543005 c -0.0054,2.602779 -0.03649,3.203425 -0.172913,3.340068 -0.08767,0.08782 -2.483146,0.136212 -2.759313,0.05575 z"
       id="path3450"
       inkscape:connector-curvature="0"
       transform="translate(0,1020.3622)" />
    <path
       style="fill:#000000"
       d=""
       id="path3452"
       inkscape:connector-curvature="0"
       transform="translate(0,1020.3622)" />
    <path
       style="fill:#ffffff"
       d=""
       id="path3454"
       inkscape:connector-curvature="0"
       transform="translate(0,1020.3622)" />
  </g>
</svg>
