<?xml version="1.0" encoding="UTF-8" standalone="no"?>
<!-- Created with Inkscape (http://www.inkscape.org/) -->
<svg xmlns:dc="http://purl.org/dc/elements/1.1/" xmlns:cc="http://creativecommons.org/ns#" xmlns:rdf="http://www.w3.org/1999/02/22-rdf-syntax-ns#" xmlns:svg="http://www.w3.org/2000/svg" xmlns="http://www.w3.org/2000/svg" xmlns:sodipodi="http://sodipodi.sourceforge.net/DTD/sodipodi-0.dtd" xmlns:inkscape="http://www.inkscape.org/namespaces/inkscape" width="107" height="32" viewBox="0 0 107 32" id="svg2" version="1.1" inkscape:version="0.91 r13725" sodipodi:docname="scut-paypal.svg">
  <defs id="defs4"/>
  <sodipodi:namedview id="base" pagecolor="#303030" bordercolor="#666666" borderopacity="1.0" inkscape:pageopacity="0" inkscape:pageshadow="2" inkscape:zoom="9.7850467" inkscape:cx="32.08978" inkscape:cy="16" inkscape:document-units="px" inkscape:current-layer="layer1" showgrid="true" units="px" inkscape:window-width="2202" inkscape:window-height="1662" inkscape:window-x="2893" inkscape:window-y="205" inkscape:window-maximized="0" inkscape:snap-smooth-nodes="true" inkscape:object-nodes="true" inkscape:object-paths="true" inkscape:snap-intersection-paths="true" inkscape:snap-global="false">
    <inkscape:grid type="xygrid" id="grid4155" units="px" spacingx="1" spacingy="1"/>
  </sodipodi:namedview>
  <metadata id="metadata7">
    <rdf:RDF>
      <cc:Work rdf:about="">
        <dc:format>image/svg+xml</dc:format>
        <dc:type rdf:resource="http://purl.org/dc/dcmitype/StillImage"/>
        <dc:title/>
      </cc:Work>
    </rdf:RDF>
  </metadata>
  <g inkscape:label="Layer 1" inkscape:groupmode="layer" id="layer1" transform="translate(0,-1020.3622)">
    <path inkscape:connector-curvature="0" id="path4637" d="m 8.9493713,1048.2634 c -0.2408976,-0.185 -0.2489786,-0.493 -0.045545,-1.7356 0.079064,-0.4829 2.792e-4,0 0.143756,-0.9768 1.6451339,-12.2395 3.7849569,-19.3015 13.4062469,-14.8263 0.146746,0.082 0.439497,0.3238 0.650557,0.537 0.301551,0.3043 0.424955,0.4724 0.576141,0.7848 0.486732,1.0056 0.552504,2.2276 0.2086,3.8754 -0.32362,1.5507 -0.955095,2.7962 -1.898031,3.7436 -0.872959,0.8771 -1.816145,1.3899 -3.08291,1.6759 -0.243945,0.056 -0.732666,0.083 -1.882693,0.1059 -1.66773,0.034 -1.703642,0.039 -1.936022,0.2947 -0.256793,0.2823 -0.288681,0.4108 -0.581971,2.3461 -0.656376,4.3309 -0.591159,3.9875 -0.786475,4.1411 -0.117226,0.092 -0.184778,0.094 -2.408793,0.093 -1.7244921,0 -2.3065829,-0.016 -2.3628649,-0.059 z m 78.3005797,-3.2565 c -1.498487,-0.3298 -2.665323,-1.467 -3.091627,-3.0134 -0.149984,-0.544 -0.149999,-1.8083 -2.3e-5,-2.5034 0.290448,-1.346 0.828201,-2.3773 1.71808,-3.295 1.070523,-1.104 2.327856,-1.6688 3.962274,-1.78 0.520475,-0.036 1.255206,0.03 1.667614,0.149 0.653487,0.1883 1.188502,0.5922 1.46065,1.1029 0.219009,0.4108 0.283444,0.3734 0.406953,-0.2364 0.07635,-0.3769 0.123806,-0.5101 0.205251,-0.5761 0.09706,-0.079 0.220234,-0.086 1.467824,-0.086 l 1.361878,0 0.121994,0.122 c 0.113871,0.1138 0.120163,0.1429 0.09455,0.4354 -0.01509,0.1723 -0.252004,1.7219 -0.526472,3.4434 -0.274469,1.7215 -0.582995,3.6594 -0.685616,4.3066 -0.102624,0.6472 -0.208918,1.2449 -0.236212,1.3282 -0.0273,0.083 -0.113376,0.205 -0.191295,0.2705 l -0.141673,0.1192 -1.337805,0 c -1.659641,0 -1.554534,0.049 -1.506314,-0.7122 0.03021,-0.4776 0.0266,-0.5115 -0.05454,-0.5115 -0.04779,0 -0.261849,0.1481 -0.475681,0.3289 -0.213827,0.1809 -0.477682,0.39 -0.586337,0.4645 -0.461627,0.3166 -1.114592,0.5745 -1.680176,0.6638 -0.424637,0.067 -1.612023,0.055 -1.953295,-0.021 z m 3.139429,-2.6643 c 0.137183,-0.028 0.449602,-0.147 0.694267,-0.2645 0.767263,-0.3682 1.433087,-1.1386 1.664221,-1.9256 0.252807,-0.8607 0.05111,-1.7334 -0.536408,-2.321 -0.993069,-0.993 -2.743568,-0.8574 -3.87896,0.3007 -0.38116,0.3888 -0.592785,0.7242 -0.763253,1.2099 -0.159483,0.4543 -0.168657,1.1422 -0.02077,1.5571 0.244854,0.687 0.755309,1.1763 1.4665,1.4058 0.300869,0.098 0.991253,0.116 1.374405,0.038 z m 6.967899,2.4499 c -0.05845,-0.023 -0.129072,-0.092 -0.156927,-0.1539 -0.05587,-0.1226 -0.08423,0.078 0.594004,-4.1982 0.22172,-1.398 0.496174,-3.1348 0.609894,-3.8596 0.79147,-5.0446 1.021822,-6.4641 1.067755,-6.5798 0.101186,-0.255 0.186679,-0.2685 1.707535,-0.2685 1.32807,0 1.39507,0 1.48496,0.094 0.0518,0.051 0.0941,0.1462 0.0941,0.2098 0,0.2428 -2.26242,14.4573 -2.31819,14.5649 -0.11372,0.2191 -0.26065,0.24 -1.66926,0.2367 -0.719193,0 -1.355459,-0.022 -1.413912,-0.045 z m -25.310074,-0.043 c -0.136816,-0.056 -0.244021,-0.1937 -0.278954,-0.3583 -0.01791,-0.085 0.03773,-0.5813 0.134434,-1.2003 0.09074,-0.5808 0.261929,-1.6809 0.380411,-2.4446 0.118483,-0.7637 0.319488,-2.0556 0.446679,-2.8711 0.12719,-0.8154 0.444085,-2.8487 0.704212,-4.5185 0.528505,-3.3923 0.52448,-3.3764 0.897253,-3.5673 l 0.210532,-0.1078 3.435916,0.019 c 3.67257,0.02 3.669049,0.02 4.424329,0.2719 0.582184,0.1942 1.018541,0.463 1.436056,0.8851 0.767984,0.7765 1.075442,1.8036 0.949066,3.1705 -0.128648,1.3914 -0.50233,2.573 -1.114634,3.525 -0.305754,0.4753 -1.035994,1.1838 -1.50911,1.4644 -0.208335,0.1235 -0.585142,0.2983 -0.837356,0.3885 -0.788199,0.2817 -1.074755,0.3134 -3.064667,0.3398 -1.998182,0.026 -1.925656,0.014 -2.092223,0.3679 -0.09734,0.2071 -0.14549,0.4715 -0.519727,2.8535 -0.104481,0.665 -0.212456,1.2686 -0.239958,1.3415 -0.07404,0.1959 -0.275217,0.3855 -0.464945,0.4382 -0.200376,0.056 -2.762029,0.058 -2.897314,0 z m 7.079556,-7.9823 c 0.812552,-0.1915 1.368045,-0.7791 1.608404,-1.7013 0.111616,-0.4282 0.136797,-1.0802 0.05267,-1.3638 -0.13513,-0.4555 -0.563001,-0.8628 -1.068654,-1.0174 -0.207783,-0.064 -2.371689,-0.058 -2.436148,0.01 -0.05384,0.053 -0.663231,3.9905 -0.630783,4.075 0.02435,0.063 0.172597,0.073 1.100393,0.072 0.79025,-5e-4 1.151647,-0.019 1.374121,-0.072 z" style="fill:#019be0" sodipodi:nodetypes="cscccccscccscccccssccccscscccsscccscscccccccsccccccccccscscscccccccscscccccscccccsccccccccccccc"/>
    <path inkscape:connector-curvature="0" id="path4635" d="m 59.562214,1048.2766 c -0.133864,-0.056 -0.220374,-0.2404 -0.182786,-0.3902 0.01586,-0.063 0.62592,-0.9596 1.355714,-1.9921 0.729787,-1.0325 1.36386,-1.9407 1.409045,-2.0184 l 0.08216,-0.1412 -1.172607,-3.436 c -1.883282,-5.5182 -1.714268,-4.9853 -1.649508,-5.2015 0.09588,-0.3199 0.141395,-0.3289 1.675466,-0.3289 1.443442,0 1.580836,0.019 1.736342,0.2411 0.08584,0.1226 0.187747,0.4404 1.039397,3.2419 0.644173,2.119 0.664797,2.18 0.729514,2.1571 0.024,-0.011 0.851887,-1.191 1.839759,-2.6278 0.987873,-1.4367 1.87897,-2.6969 1.980222,-2.8005 l 0.18409,-0.1883 1.503655,-0.014 c 1.460051,-0.014 1.506441,-0.01 1.599658,0.082 0.156221,0.1562 0.127153,0.4099 -0.08432,0.7358 -0.156184,0.2408 -6.966412,10.0286 -8.250395,11.8577 -0.276802,0.3943 -0.525276,0.6975 -0.617151,0.7531 -0.143302,0.086 -0.253345,0.093 -1.61288,0.1039 -0.831077,0.01 -1.504831,-0.011 -1.56537,-0.034 z m -55.4562878,-2.8164 c -0.2404856,-0.2404 -0.2353253,-0.3175 0.210208,-3.1425 0.2241319,-1.421 0.5005357,-3.1768 0.6142304,-3.9017 0.1136948,-0.7248 0.4077603,-2.5887 0.653479,-4.1418 0.2457187,-1.5533 0.6598795,-4.1797 0.9203572,-5.8364 0.2604776,-1.6568 0.5070018,-3.1182 0.5478314,-3.2477 0.1061879,-0.3366 0.2751019,-0.5341 0.5784982,-0.6764 l 0.2639048,-0.1237 4.3537288,10e-5 c 4.558613,10e-5 4.855526,0.01 5.914114,0.2152 2.105178,0.4063 3.375562,1.502 3.864042,3.3327 0.104167,0.3903 0.121154,0.5532 0.123358,1.1822 -0.02807,10.7008 -11.307878,5.1486 -11.968641,9.5411 -0.02903,0.1078 -0.2743872,1.6062 -0.54525,3.33 -0.2712753,1.7264 -0.5241236,3.1952 -0.5629336,3.2703 -0.038755,0.074 -0.126686,0.1805 -0.195411,0.2345 -0.1227708,0.097 -0.164423,0.099 -2.3814613,0.099 l -2.2565049,0 -0.13355,-0.1336 z m 44.3317538,-0.4763 c -1.564292,-0.3299 -2.793,-1.6004 -3.131647,-3.2379 -0.09431,-0.4561 -0.06416,-1.7347 0.05355,-2.271 0.28745,-1.3092 0.895023,-2.4678 1.736781,-3.3119 0.927201,-0.9297 2.06328,-1.4898 3.408114,-1.6804 0.519135,-0.073 1.676751,-0.033 2.080382,0.074 0.697297,0.1838 1.270145,0.5935 1.520359,1.0873 0.143862,0.2839 0.2495,0.3855 0.323786,0.3112 0.02838,-0.028 0.09058,-0.2595 0.138218,-0.5134 0.13344,-0.7114 0.04213,-0.6739 1.632681,-0.6729 1.409026,7e-4 1.500703,0.015 1.582004,0.2461 0.04773,0.1358 0.02805,0.2749 -0.560719,3.9657 -0.169314,1.0614 -0.425761,2.6817 -0.569881,3.6007 -0.276831,1.7652 -0.350656,2.0375 -0.583466,2.1525 -0.08458,0.042 -0.47891,0.059 -1.402395,0.059 l -1.284721,6e-4 -0.115532,-0.1155 c -0.132818,-0.1328 -0.134396,-0.1503 -0.06079,-0.677 0.08196,-0.5865 -0.01528,-0.5986 -0.619538,-0.077 -0.72695,0.6275 -1.409493,0.956 -2.248471,1.0825 -0.616075,0.092 -1.395486,0.084 -1.898713,-0.023 z m 3.088169,-2.614 c 1.021883,-0.2132 1.984203,-1.0419 2.358101,-2.0307 0.243339,-0.6434 0.198196,-1.5072 -0.106592,-2.0396 -0.820836,-1.434 -2.863586,-1.5518 -4.222215,-0.2437 -0.711078,0.6846 -1.066758,1.6145 -0.93735,2.4506 0.20893,1.3498 1.476612,2.1621 2.908056,1.8634 z m -18.369015,2.3462 c -0.09321,-0.039 -0.199057,-0.2782 -0.198945,-0.4496 9.4e-5,-0.1419 0.214307,-1.5376 1.645592,-10.7219 0.260209,-1.6698 0.504763,-3.1453 0.543453,-3.2789 0.0728,-0.2515 0.263228,-0.4625 0.462018,-0.512 0.05625,-0.014 1.690797,-0.019 3.632324,-0.012 l 3.53005,0.015 0.468205,0.1283 c 1.954902,0.536 2.901202,1.9758 2.707034,4.119 -0.248287,2.7406 -1.439482,4.6305 -3.375655,5.3557 -0.797324,0.2987 -0.973105,0.3187 -3.05415,0.3476 -1.803847,0.025 -1.894334,0.03 -1.993603,0.1203 -0.256227,0.232 -0.282166,0.3451 -0.707202,3.0829 -0.195173,1.2573 -0.273645,1.5457 -0.467362,1.7181 -0.100703,0.089 -0.179369,0.094 -1.618889,0.1028 -0.832176,0 -1.539967,0 -1.57287,-0.016 z m 7.27878,-7.9655 c 0.396295,-0.1233 0.660859,-0.2894 0.929194,-0.5832 0.416546,-0.4562 0.623143,-1.017 0.662687,-1.7991 0.03184,-0.6297 -0.06984,-0.9214 -0.452573,-1.2985 -0.416408,-0.4102 -0.514772,-0.4337 -1.904008,-0.4555 -0.70968,-0.012 -1.188409,-7e-4 -1.215746,0.026 -0.05062,0.05 -0.699146,4.1079 -0.665441,4.1631 0.01185,0.019 0.547922,0.036 1.191263,0.036 1.013508,0 1.20776,-0.012 1.454624,-0.089 z" style="fill:#1a53be;fill-opacity:1" sodipodi:nodetypes="cccccscscsccccccccccccccscscccsccccscssccccccccccccccssccccscccccccsccccscccccscccsccccccsccccscc"/>
    <path inkscape:connector-curvature="0" id="path4633" d="m 10.384614,1037.0548 c 0.31916,-1.992 0.582069,-3.6366 0.879556,-5.5812 0.04972,-0.3236 0.124622,-0.6806 0.166442,-0.7933 0.101165,-0.2728 0.303663,-0.4955 0.547514,-0.6021 0.187149,-0.082 0.412572,-0.088 3.658885,-0.1018 3.516483,-0.015 4.608534,0.018 5.286781,0.1586 0.438914,0.091 1.145196,0.3364 1.145196,0.3907 0,0.023 -0.0458,0.3637 -0.111792,0.6764 -0.408591,1.9351 -1.120674,3.2538 -2.273236,4.4151 -1.031904,1.0398 -2.214015,1.6465 -3.714748,1.9346 -0.483611,0.092 -0.758688,0.105 -2.834968,0.1305 -2.514119,0.032 -2.277715,-0.016 -2.627953,0.3209 -0.11002,0.1059 -0.362499,0.7723 -0.359911,0.7501 0.05719,-0.5913 0.164014,-1.2219 0.238234,-1.6985 z" style="fill:#1d3892;fill-opacity:1" sodipodi:nodetypes="ccccccsccccccc"/>
  </g>
</svg>