<?xml version="1.0" encoding="UTF-8" standalone="no"?>
<!-- Created with Inkscape (http://www.inkscape.org/) -->

<svg
   xmlns:dc="http://purl.org/dc/elements/1.1/"
   xmlns:cc="http://creativecommons.org/ns#"
   xmlns:rdf="http://www.w3.org/1999/02/22-rdf-syntax-ns#"
   xmlns:svg="http://www.w3.org/2000/svg"
   xmlns="http://www.w3.org/2000/svg"
   xmlns:xlink="http://www.w3.org/1999/xlink"
   xmlns:sodipodi="http://sodipodi.sourceforge.net/DTD/sodipodi-0.dtd"
   xmlns:inkscape="http://www.inkscape.org/namespaces/inkscape"
   version="1.0"
   width="600"
   height="126"
   id="svg2424"
   sodipodi:docname="voidlogo.svg"
   inkscape:version="">
  <metadata
     id="metadata114">
    <rdf:RDF>
      <cc:Work
         rdf:about="">
        <dc:format>image/svg+xml</dc:format>
        <dc:type
           rdf:resource="http://purl.org/dc/dcmitype/StillImage" />
      </cc:Work>
    </rdf:RDF>
  </metadata>
  <sodipodi:namedview
     pagecolor="#ffffff"
     bordercolor="#666666"
     borderopacity="1"
     objecttolerance="10"
     gridtolerance="10"
     guidetolerance="10"
     inkscape:pageopacity="0"
     inkscape:pageshadow="2"
     inkscape:window-width="3200"
     inkscape:window-height="1671"
     id="namedview112"
     showgrid="false"
     inkscape:zoom="4.03"
     inkscape:cx="267.39758"
     inkscape:cy="76.876698"
     inkscape:window-x="0"
     inkscape:window-y="55"
     inkscape:window-maximized="1"
     inkscape:current-layer="text41" />
  <defs
     id="defs2426">
    <linearGradient
       x1="112.49854"
       y1="6.1372099"
       x2="112.49853"
       y2="129.3468"
       id="path1082_2_"
       gradientUnits="userSpaceOnUse"
       gradientTransform="translate(287,-83)">
      <stop
         id="stop193"
         style="stop-color:#ffffff;stop-opacity:0"
         offset="0" />
      <stop
         id="stop195"
         style="stop-color:#ffffff;stop-opacity:0.27450982"
         offset="1" />
      <midPointStop
         offset="0"
         style="stop-color:#FFFFFF"
         id="midPointStop197" />
      <midPointStop
         offset="0.5"
         style="stop-color:#FFFFFF"
         id="midPointStop199" />
      <midPointStop
         offset="1"
         style="stop-color:#000000"
         id="midPointStop201" />
    </linearGradient>
    <linearGradient
       x1="541.33502"
       y1="104.50665"
       x2="606.91248"
       y2="303.14029"
       id="linearGradient2544"
       xlink:href="#path1082_2_"
       gradientUnits="userSpaceOnUse"
       gradientTransform="matrix(-0.3937741,0,0,0.393752,357.51969,122.00151)" />
    <linearGradient
       id="linearGradient3388">
      <stop
         id="stop3390"
         style="stop-color:#000000;stop-opacity:0"
         offset="0" />
      <stop
         id="stop3392"
         style="stop-color:#000000;stop-opacity:0.37113401"
         offset="1" />
    </linearGradient>
    <linearGradient
       x1="490.72305"
       y1="237.72447"
       x2="490.72305"
       y2="183.9644"
       id="linearGradient4416"
       xlink:href="#linearGradient3388"
       gradientUnits="userSpaceOnUse"
       gradientTransform="matrix(0.749107,0,0,0.749107,-35.459862,91.44108)" />
  </defs>
  <g
     transform="matrix(0.7,0,0,0.7,-37.866513,-100.53407)"
     id="layer1">
    <g
       transform="matrix(0.8746356,0,0,0.8746356,14.730518,23.408954)"
       id="g2424">
      <g
         transform="matrix(1.0350047,0,0,1.0350047,-48.146085,-125.2753)"
         id="g2809"
         style="fill:#000000;fill-opacity:1;stroke:#000000;stroke-opacity:1;stroke-width:10.78468541;stroke-miterlimit:4;stroke-dasharray:none">
        <g
           aria-label="void"
           style="font-style:normal;font-variant:normal;font-weight:300;font-stretch:normal;font-size:77.30008698px;line-height:1.25;font-family:'Montserrat Alternates';-inkscape-font-specification:'Montserrat Alternates Light';letter-spacing:0px;word-spacing:0px;fill:#000000;fill-opacity:1;stroke:#000000;stroke-width:10.78468541;stroke-opacity:1;stroke-miterlimit:4;stroke-dasharray:none"
           id="text41">
          <path
             d="m 332.94007,414.79686 h -0.37104 l -44.8959,-95.35739 10.38914,-2.22624 34.69228,71.6108 33.57916,-71.6108 11.50225,2.22624 z"
             style="font-style:normal;font-variant:normal;font-weight:normal;font-stretch:normal;font-size:185.5202179px;font-family:KaratDemo;-inkscape-font-specification:KaratDemo;fill:#f9f9f9;stroke:#ffffff;stroke-width:12.6247406;stroke-miterlimit:4;stroke-dasharray:none;stroke-opacity:1"
             id="path43"
             inkscape:connector-curvature="0" />
          <path
             d="m 471.7829,366.00504 q 0,-7.79185 -2.96832,-14.65609 -2.78281,-6.86425 -7.79185,-12.05882 -5.00905,-5.19456 -11.8733,-8.16289 -6.67872,-3.15384 -14.47057,-3.15384 -7.23529,0 -13.91402,3.15384 -6.67873,2.96833 -11.68777,8.16289 -5.00905,5.19457 -8.16289,12.24434 -2.96833,6.86424 -2.96833,14.65609 0,7.60633 2.78281,14.47058 2.96832,6.67873 7.97737,12.05881 5.00904,5.19457 11.68777,8.34841 6.67873,2.96833 14.47058,2.96833 7.60633,0 14.28505,-2.96833 6.86425,-3.15384 11.8733,-8.34841 5.00904,-5.38008 7.79185,-12.24433 2.96832,-6.86425 2.96832,-14.47058 z m 10.76017,0 q 0,9.64705 -3.7104,18.55202 -3.71041,8.71946 -10.20361,15.5837 -6.30769,6.67873 -15.02714,10.76018 -8.53393,3.89592 -18.55202,3.89592 -10.38913,0 -19.29411,-4.08144 -8.71945,-4.08145 -15.21265,-10.9457 -6.30769,-6.86425 -9.83257,-15.5837 -3.52489,-8.71945 -3.52489,-17.99546 0,-10.01809 3.71041,-18.92306 3.89592,-8.90497 10.38913,-15.5837 6.49321,-6.67873 15.21266,-10.57465 8.71945,-3.89592 18.55202,-3.89592 9.64705,0 18.18098,3.89592 8.71945,3.89592 15.21266,10.57465 6.4932,6.67873 10.20361,15.5837 3.89592,8.71945 3.89592,18.73754 z"
             style="font-style:normal;font-variant:normal;font-weight:normal;font-stretch:normal;font-size:185.5202179px;font-family:KaratDemo;-inkscape-font-specification:KaratDemo;fill:#f9f9f9;stroke-width:12.62474093;stroke:#ffffff;stroke-opacity:1;stroke-miterlimit:4;stroke-dasharray:none"
             id="path45" />
          <path
             d="m 501.7705,414.79686 v -95.35739 l 10.76018,-2.22624 v 95.35739 z m 4.45249,-117.24878 -8.53393,-9.64705 8.53393,-9.64705 8.53393,9.64705 z"
             style="font-style:normal;font-variant:normal;font-weight:normal;font-stretch:normal;font-size:185.5202179px;font-family:KaratDemo;-inkscape-font-specification:KaratDemo;fill:#f9f9f9;stroke-width:12.62474093;stroke:#ffffff;stroke-opacity:1;stroke-miterlimit:4;stroke-dasharray:none"
             id="path47" />
          <path
             d="m 619.51207,366.00504 q 0,-9.27601 -3.33936,-16.32578 -3.15385,-7.23528 -8.53393,-12.05881 -5.19457,-4.82353 -11.8733,-7.23529 -6.67873,-2.41176 -13.72849,-2.41176 -8.34841,0 -15.39818,3.33936 -6.86425,3.15385 -11.68778,8.53393 -4.82352,5.19457 -7.60633,12.05882 -2.59728,6.86424 -2.59728,14.09953 0,8.34841 2.7828,15.39818 2.78281,6.86425 7.79185,11.8733 5.00905,5.00904 11.68778,7.97736 6.86425,2.78281 15.02714,2.78281 7.79184,0 14.65609,-2.96833 6.86425,-3.15384 11.8733,-8.34841 5.00904,-5.19456 7.97737,-12.05881 2.96832,-6.86425 2.96832,-14.6561 z m 0,48.79182 v -17.80994 h -0.37104 q -3.89593,5.00905 -8.71945,8.34841 -4.63801,3.33936 -9.64705,5.56561 -4.82353,2.04072 -9.46153,2.96832 -4.63801,0.9276 -8.53393,0.9276 -9.83258,0 -18.73755,-3.33936 -8.71945,-3.52489 -15.39817,-9.83258 -6.67873,-6.30768 -10.76018,-15.39817 -3.89592,-9.09049 -3.89592,-20.40723 0,-10.20361 3.7104,-19.10858 3.71041,-8.90497 10.20362,-15.39818 6.4932,-6.49321 15.39817,-10.20361 8.90497,-3.89592 19.29411,-3.89592 10.20361,0 19.66514,5.00904 9.46153,4.82353 16.88234,13.35746 h 0.37104 v -55.09951 l 10.76017,-2.22624 v 134.31664 z"
             style="font-style:normal;font-variant:normal;font-weight:normal;font-stretch:normal;font-size:185.5202179px;font-family:KaratDemo;-inkscape-font-specification:KaratDemo;fill:#f9f9f9;stroke-width:12.62474093;stroke:#ffffff;stroke-opacity:1;stroke-miterlimit:4;stroke-dasharray:none"
             id="path49" />
        </g>
      </g>
      <g
         transform="matrix(1.4854426,0,0.02102071,1.4854426,24.809906,-769.96118)"
         id="g5326"
         style="fill:#1793d1;fill-opacity:1;stroke:none">
        <path
           d="m 400.67581,629.79609 7.68167,-1.91575 -0.92851,91.20792 -7.79574,1.32426 z"
           id="path2292"
           style="fill:#1793d1;fill-opacity:1;fill-rule:evenodd;stroke:none"
           inkscape:connector-curvature="0" />
        <path
           d="m 421.10266,657.01757 6.75064,-2.9867 -0.86808,65.39931 -6.49779,1.33915 z m -1.26059,-23.58316 5.47167,-4.41533 4.42261,4.99952 -5.47558,4.53221 z"
           id="path2294"
           style="fill:#1793d1;fill-opacity:1;fill-rule:evenodd;stroke:none"
           inkscape:connector-curvature="0" />
        <path
           d="m 440.44273,655.82614 7.67755,-1.56201 -0.1573,13.6722 c -0.007,0.58717 4.4194,-15.27364 24.68502,-14.92094 19.67986,0.10952 22.68401,15.34634 22.5291,18.76237 l -0.43759,48.0783 -6.73044,1.45631 0.63316,-47.489 c 0.0974,-1.38684 -2.88144,-13.11441 -16.78906,-13.15754 -13.90509,-0.0404 -23.68364,10.10048 -23.75821,16.57937 l -0.48127,41.83477 -7.80388,2.0313 z"
           id="path2296"
           style="fill:#1793d1;fill-opacity:1;fill-rule:evenodd;stroke:none"
           inkscape:connector-curvature="0" />
        <path
           d="m 561.53301,720.20203 -7.6776,1.56186 0.15737,-13.67198 c 0.007,-0.58742 -4.42201,15.27361 -24.68504,14.92086 -19.67983,-0.10944 -22.68399,-15.34626 -22.52908,-18.76229 l 0.43757,-48.07861 8.15674,-1.64226 -0.54644,47.48988 c -0.0149,1.29682 1.36845,13.29979 15.27604,13.3426 13.90511,0.0405 23.76622,-8.37359 24.01453,-21.04416 l 0.43105,-37.46902 7.5978,-1.93195 z"
           id="path2298"
           style="fill:#1793d1;fill-opacity:1;fill-rule:evenodd;stroke:none"
           inkscape:connector-curvature="0" />
        <path
           d="m 577.45461,655.28678 -5.42715,4.20017 20.19894,26.93328 -22.39092,31.11622 5.63499,4.226 21.04365,-28.8967 20.8779,29.58159 5.32727,-4.20103 -22.37578,-31.62866 18.56963,-25.5775 -5.53193,-4.73429 -16.92109,23.66778 z"
           id="path2300"
           style="fill:#1793d1;fill-opacity:1;fill-rule:evenodd;stroke:none"
           inkscape:connector-curvature="0" />
      </g>
      <path
         d="m 146.07667,337.95408 c -8.79537,-21.56391 -14.10032,-35.66923 -23.89281,-56.59215 6.00403,-6.36425 13.37368,-13.77576 25.34198,-22.14636 -12.8671,5.29474 -21.64403,10.61053 -28.20317,16.12673 -12.53252,-26.15105 -32.167383,-63.40203 -72.012843,-134.99623 31.317194,18.07996 55.593723,29.22646 78.218283,33.47965 -0.97151,4.17845 -1.52386,8.69825 -1.48634,13.41417 l 0.0372,1.00328 c 0.49693,20.06409 10.93425,35.49338 23.29826,34.44576 12.36403,-1.04761 21.97445,-18.17182 21.47753,-38.23591 -0.0935,-3.77544 -0.51932,-7.40735 -1.26338,-10.77593 22.37891,-4.37771 46.39587,-15.49567 77.28933,-33.33102 -6.0916,11.21503 -11.52886,21.32458 -16.72125,30.9529 -8.17886,6.33916 -16.70983,14.58961 -34.11135,23.52122 11.9608,-3.10792 20.52459,-6.69363 27.1999,-10.7016 -52.79254,98.29043 -57.0676,111.3512 -75.17132,153.83549 z"
         id="path2518"
         style="fill:#1793d1;fill-opacity:1;fill-rule:evenodd;stroke:none;stroke-width:1.18906665"
         inkscape:connector-curvature="0" />
    </g>
  </g>
</svg>
